<?xml version="1.0" encoding="UTF-8" standalone="no"?>
<!DOCTYPE svg PUBLIC "-//W3C//DTD SVG 1.1//EN" "http://www.w3.org/Graphics/SVG/1.1/DTD/svg11.dtd">
<svg width="456" height="456" viewBox="0 0 456 456" version="1.1" xmlns="http://www.w3.org/2000/svg" xmlns:xlink="http://www.w3.org/1999/xlink" xml:space="preserve" xmlns:serif="http://www.serif.com/" style="fill-rule:evenodd;clip-rule:evenodd;stroke-linejoin:round;stroke-miterlimit:2;">
  <!--<rect fill="#121212" width="456" height="456"/>-->
  <!--<path fill="none" stroke="white" stroke-width="35.43" stroke-linecap="round" stroke-miterlimit="22.9256" d="M344.82 228.46c-12.89,48.08 -52.46,84.34 -101.48,92.99 -69.66,12.28 -136.09,-34.24 -148.37,-103.9 -12.28,-69.66 34.23,-136.09 103.89,-148.37"/>
  <polygon fill="lime" fill-rule="nonzero" stroke="lime" stroke-width="17.72" stroke-linecap="round" stroke-linejoin="round" stroke-miterlimit="7.6613" points="202.9,204.22 324.3,82.77 248.57,82.77 248.57,60.21 363,60.21 363,174.65 340.44,174.65 340.44,98.91 218.99,220.31 "/>
  <path fill="lime" fill-rule="nonzero" d="M133.46 381.95c0,2.3 -0.4,4.4 -1.18,6.33 -0.78,1.93 -1.87,3.59 -3.25,4.98 -1.37,1.39 -3.02,2.48 -4.92,3.27 -1.89,0.79 -3.95,1.18 -6.17,1.18l-18.16 0c-0.48,0 -0.93,-0.09 -1.34,-0.26 -0.42,-0.18 -0.77,-0.42 -1.08,-0.72 -0.3,-0.31 -0.54,-0.68 -0.71,-1.09 -0.17,-0.42 -0.25,-0.88 -0.25,-1.37l0 -30.78c0,-0.47 0.08,-0.92 0.25,-1.34 0.17,-0.42 0.41,-0.79 0.71,-1.1 0.31,-0.32 0.66,-0.56 1.08,-0.74 0.41,-0.17 0.86,-0.26 1.34,-0.26l18.16 0c2.22,0 4.28,0.4 6.17,1.18 1.9,0.79 3.55,1.88 4.92,3.27 1.38,1.4 2.47,3.05 3.25,4.99 0.78,1.94 1.18,4.04 1.18,6.32l0 6.14zm-6.73 -6.14c0,-1.33 -0.21,-2.55 -0.64,-3.66 -0.42,-1.1 -1.01,-2.04 -1.79,-2.82 -0.78,-0.77 -1.7,-1.38 -2.78,-1.81 -1.08,-0.43 -2.28,-0.65 -3.58,-0.65l-14.82 0 0 24.01 14.82 0c1.3,0 2.5,-0.22 3.58,-0.64 1.08,-0.43 2,-1.04 2.78,-1.82 0.78,-0.78 1.37,-1.71 1.79,-2.8 0.43,-1.1 0.64,-2.31 0.64,-3.67l0 -6.14z"/>
  <path id="_1" fill="lime" fill-rule="nonzero" d="M168.03 388.31c0,0.95 -0.17,1.96 -0.49,3.05 -0.33,1.11 -0.86,2.12 -1.59,3.05 -0.73,0.94 -1.69,1.72 -2.87,2.36 -1.18,0.63 -2.61,0.94 -4.31,0.94l-12.13 0c-0.92,0 -1.93,-0.17 -3.01,-0.5 -1.07,-0.33 -2.08,-0.87 -3,-1.61 -0.92,-0.75 -1.69,-1.72 -2.31,-2.92 -0.63,-1.2 -0.94,-2.65 -0.94,-4.37 0,-0.94 0.17,-1.97 0.5,-3.08 0.32,-1.1 0.85,-2.11 1.59,-3.05 0.73,-0.94 1.69,-1.73 2.86,-2.35 1.19,-0.63 2.63,-0.95 4.31,-0.95l12.13 0 0 6.51 -12.13 0c-0.91,0 -1.61,0.29 -2.12,0.86 -0.5,0.57 -0.75,1.27 -0.75,2.11 0,0.9 0.29,1.59 0.87,2.09 0.58,0.5 1.26,0.74 2.06,0.74l12.07 0c0.92,0 1.63,-0.27 2.12,-0.83 0.5,-0.56 0.75,-1.26 0.75,-2.11l0 -9.53c0,-0.89 -0.26,-1.6 -0.81,-2.13 -0.54,-0.52 -1.23,-0.78 -2.06,-0.78l-14.77 0 0 -6.49 14.77 0c0.94,0 1.93,0.17 3.01,0.5 1.09,0.33 2.08,0.87 3,1.62 0.93,0.74 1.7,1.71 2.32,2.91 0.62,1.2 0.93,2.65 0.93,4.37l0 9.59z"/>
  <path id="_2" fill="lime" fill-rule="nonzero" d="M204.6 400.45c0,1.17 -0.15,2.22 -0.44,3.16 -0.29,0.93 -0.68,1.76 -1.16,2.46 -0.49,0.71 -1.05,1.32 -1.68,1.82 -0.64,0.5 -1.31,0.9 -2,1.22 -0.71,0.32 -1.41,0.55 -2.11,0.69 -0.71,0.16 -1.38,0.23 -2.03,0.23l-12.12 0 0 -6.83 12.12 0c0.9,0 1.58,-0.24 2.03,-0.71 0.45,-0.48 0.67,-1.16 0.67,-2.04l0 -31.13 6.72 0 0 31.13zm-9.42 -2.74l-12.12 0c-0.97,0 -2,-0.17 -3.09,-0.5 -1.1,-0.33 -2.12,-0.88 -3.07,-1.64 -0.94,-0.76 -1.73,-1.75 -2.35,-2.97 -0.62,-1.22 -0.93,-2.71 -0.93,-4.47l0 -18.81 6.72 0 0 18.81c0,0.89 0.24,1.57 0.7,2.04 0.46,0.48 1.16,0.71 2.07,0.71l12.07 0 0 6.83z"/>
  <path id="_3" fill="lime" fill-rule="nonzero" d="M260.72 362.1c0.25,0.61 0.33,1.25 0.23,1.93 -0.1,0.67 -0.37,1.25 -0.82,1.72l-22.2 25.13 22.73 0 0 6.83 -30.3 0c-0.66,0 -1.26,-0.19 -1.83,-0.56 -0.55,-0.38 -0.98,-0.87 -1.25,-1.49 -0.29,-0.61 -0.38,-1.25 -0.27,-1.91 0.11,-0.67 0.39,-1.25 0.82,-1.74l22.23 -25.14 -22.78 0 0 -6.82 30.37 0c0.65,0 1.26,0.19 1.81,0.57 0.57,0.37 0.98,0.87 1.26,1.48z"/>
  <path id="_4" fill="lime" fill-rule="nonzero" d="M295.87 378.72c0,0.95 -0.17,1.97 -0.5,3.06 -0.32,1.1 -0.85,2.11 -1.59,3.05 -0.73,0.93 -1.69,1.72 -2.87,2.35 -1.18,0.63 -2.62,0.95 -4.3,0.95l-12.13 0 0 -6.49 12.13 0c0.91,0 1.61,-0.29 2.12,-0.85 0.5,-0.58 0.75,-1.28 0.75,-2.12 0,-0.9 -0.29,-1.59 -0.84,-2.1 -0.57,-0.51 -1.24,-0.76 -2.03,-0.76l-12.13 0c-0.92,0 -1.63,0.28 -2.12,0.85 -0.5,0.57 -0.75,1.28 -0.75,2.12l0 9.53c0,0.91 0.27,1.62 0.84,2.12 0.55,0.51 1.25,0.76 2.08,0.76l12.08 0 0 6.52 -12.13 0c-0.94,0 -1.93,-0.17 -3.01,-0.5 -1.09,-0.33 -2.08,-0.87 -3,-1.61 -0.93,-0.75 -1.7,-1.72 -2.32,-2.92 -0.62,-1.2 -0.93,-2.65 -0.93,-4.37l0 -9.59c0,-0.95 0.17,-1.96 0.49,-3.05 0.33,-1.1 0.86,-2.12 1.59,-3.05 0.73,-0.94 1.69,-1.72 2.87,-2.36 1.18,-0.63 2.61,-0.94 4.31,-0.94l12.13 0c0.92,0 1.93,0.17 3.01,0.5 1.08,0.33 2.08,0.87 3,1.62 0.92,0.74 1.69,1.71 2.31,2.91 0.62,1.2 0.94,2.65 0.94,4.37z"/>
  <path id="_5" fill="lime" fill-rule="nonzero" d="M324.86 376.15l-15.13 0c-0.91,0 -1.61,0.23 -2.07,0.69 -0.47,0.47 -0.7,1.15 -0.7,2.04l0 18.83 -6.72 0 0 -18.83c0,-1.17 0.14,-2.23 0.44,-3.15 0.29,-0.93 0.68,-1.75 1.17,-2.46 0.5,-0.7 1.06,-1.31 1.7,-1.81 0.63,-0.5 1.3,-0.9 2,-1.22 0.7,-0.32 1.41,-0.54 2.12,-0.7 0.71,-0.15 1.39,-0.22 2,-0.22l15.19 0 0 6.83z"/>
  <path id="_6" fill="lime" fill-rule="nonzero" d="M359.59 388.13c0,1.16 -0.15,2.22 -0.44,3.16 -0.29,0.94 -0.68,1.76 -1.17,2.47 -0.48,0.71 -1.04,1.32 -1.67,1.81 -0.65,0.5 -1.31,0.9 -2.01,1.22 -0.69,0.32 -1.41,0.55 -2.12,0.7 -0.72,0.15 -1.39,0.22 -2.03,0.22l-12.13 0c-0.93,0 -1.94,-0.17 -3.05,-0.5 -1.1,-0.33 -2.12,-0.88 -3.06,-1.64 -0.95,-0.76 -1.73,-1.75 -2.36,-2.97 -0.62,-1.22 -0.94,-2.71 -0.94,-4.47l0 -9.25c0,-1.75 0.32,-3.23 0.94,-4.45 0.63,-1.22 1.41,-2.2 2.36,-2.97 0.94,-0.76 1.96,-1.31 3.06,-1.64 1.11,-0.33 2.12,-0.5 3.05,-0.5l12.13 0c1.73,0 3.19,0.31 4.39,0.94 1.21,0.64 2.19,1.43 2.93,2.39 0.74,0.95 1.28,1.99 1.62,3.11 0.33,1.12 0.5,2.16 0.5,3.12l0 9.25zm-6.73 -9.2c0,-0.94 -0.22,-1.64 -0.69,-2.1 -0.47,-0.45 -1.14,-0.68 -2.02,-0.68l-12.08 0c-0.89,0 -1.57,0.23 -2.04,0.69 -0.47,0.47 -0.7,1.15 -0.7,2.04l0 9.25c0,0.89 0.23,1.57 0.7,2.04 0.47,0.48 1.15,0.71 2.04,0.71l12.08 0c0.91,0 1.59,-0.23 2.04,-0.71 0.45,-0.47 0.67,-1.15 0.67,-2.04l0 -9.2z"/>-->
 
	  <!--<rect fill="blue" width="456" height="456"/>-->
  <path fill="none" stroke="white" stroke-width="35.43" stroke-linecap="round" stroke-miterlimit="22.9256" d="M344.82 228.46c-12.89,48.08 -52.46,84.34 -101.48,92.99 -69.66,12.28 -136.09,-34.24 -148.37,-103.9 -12.28,-69.66 34.23,-136.09 103.89,-148.37"/>
  <polygon fill="lime" fill-rule="nonzero" stroke="lime" stroke-width="17.72" stroke-linecap="round" stroke-linejoin="round" stroke-miterlimit="7.6613" points="202.9,204.22 324.3,82.77 248.57,82.77 248.57,60.21 363,60.21 363,174.65 340.44,174.65 340.44,98.91 218.99,220.31 "/>
  <path fill="lime" fill-rule="nonzero" d="M133.46 381.95c0,2.3 -0.4,4.4 -1.18,6.33 -0.78,1.93 -1.87,3.59 -3.25,4.98 -1.37,1.39 -3.02,2.48 -4.92,3.27 -1.89,0.79 -3.95,1.18 -6.17,1.18l-18.16 0c-0.48,0 -0.93,-0.09 -1.34,-0.26 -0.42,-0.18 -0.77,-0.42 -1.08,-0.72 -0.3,-0.31 -0.54,-0.68 -0.71,-1.09 -0.17,-0.42 -0.25,-0.88 -0.25,-1.37l0 -30.78c0,-0.47 0.08,-0.92 0.25,-1.34 0.17,-0.42 0.41,-0.79 0.71,-1.1 0.31,-0.32 0.66,-0.56 1.08,-0.74 0.41,-0.17 0.86,-0.26 1.34,-0.26l18.16 0c2.22,0 4.28,0.4 6.17,1.18 1.9,0.79 3.55,1.88 4.92,3.27 1.38,1.4 2.47,3.05 3.25,4.99 0.78,1.94 1.18,4.04 1.18,6.32l0 6.14zm-6.73 -6.14c0,-1.33 -0.21,-2.55 -0.64,-3.66 -0.42,-1.1 -1.01,-2.04 -1.79,-2.82 -0.78,-0.77 -1.7,-1.38 -2.78,-1.81 -1.08,-0.43 -2.28,-0.65 -3.58,-0.65l-14.82 0 0 24.01 14.82 0c1.3,0 2.5,-0.22 3.58,-0.64 1.08,-0.43 2,-1.04 2.78,-1.82 0.78,-0.78 1.37,-1.71 1.79,-2.8 0.43,-1.1 0.64,-2.31 0.64,-3.67l0 -6.14z"/>
  <path id="_1" fill="lime" fill-rule="nonzero" d="M168.03 388.31c0,0.95 -0.17,1.96 -0.49,3.05 -0.33,1.11 -0.86,2.12 -1.59,3.05 -0.73,0.94 -1.69,1.72 -2.87,2.36 -1.18,0.63 -2.61,0.94 -4.31,0.94l-12.13 0c-0.92,0 -1.93,-0.17 -3.01,-0.5 -1.07,-0.33 -2.08,-0.87 -3,-1.61 -0.92,-0.75 -1.69,-1.72 -2.31,-2.92 -0.63,-1.2 -0.94,-2.65 -0.94,-4.37 0,-0.94 0.17,-1.97 0.5,-3.08 0.32,-1.1 0.85,-2.11 1.59,-3.05 0.73,-0.94 1.69,-1.73 2.86,-2.35 1.19,-0.63 2.63,-0.95 4.31,-0.95l12.13 0 0 6.51 -12.13 0c-0.91,0 -1.61,0.29 -2.12,0.86 -0.5,0.57 -0.75,1.27 -0.75,2.11 0,0.9 0.29,1.59 0.87,2.09 0.58,0.5 1.26,0.74 2.06,0.74l12.07 0c0.92,0 1.63,-0.27 2.12,-0.83 0.5,-0.56 0.75,-1.26 0.75,-2.11l0 -9.53c0,-0.89 -0.26,-1.6 -0.81,-2.13 -0.54,-0.52 -1.23,-0.78 -2.06,-0.78l-14.77 0 0 -6.49 14.77 0c0.94,0 1.93,0.17 3.01,0.5 1.09,0.33 2.08,0.87 3,1.62 0.93,0.74 1.7,1.71 2.32,2.91 0.62,1.2 0.93,2.65 0.93,4.37l0 9.59z"/>
  <path id="_2" fill="lime" fill-rule="nonzero" d="M204.6 400.45c0,1.17 -0.15,2.22 -0.44,3.16 -0.29,0.93 -0.68,1.76 -1.16,2.46 -0.49,0.71 -1.05,1.32 -1.68,1.82 -0.64,0.5 -1.31,0.9 -2,1.22 -0.71,0.32 -1.41,0.55 -2.11,0.69 -0.71,0.16 -1.38,0.23 -2.03,0.23l-12.12 0 0 -6.83 12.12 0c0.9,0 1.58,-0.24 2.03,-0.71 0.45,-0.48 0.67,-1.16 0.67,-2.04l0 -31.13 6.72 0 0 31.13zm-9.42 -2.74l-12.12 0c-0.97,0 -2,-0.17 -3.09,-0.5 -1.1,-0.33 -2.12,-0.88 -3.07,-1.64 -0.94,-0.76 -1.73,-1.75 -2.35,-2.97 -0.62,-1.22 -0.93,-2.71 -0.93,-4.47l0 -18.81 6.72 0 0 18.81c0,0.89 0.24,1.57 0.7,2.04 0.46,0.48 1.16,0.71 2.07,0.71l12.07 0 0 6.83z"/>
  <path id="_3" fill="lime" fill-rule="nonzero" d="M260.72 362.1c0.25,0.61 0.33,1.25 0.23,1.93 -0.1,0.67 -0.37,1.25 -0.82,1.72l-22.2 25.13 22.73 0 0 6.83 -30.3 0c-0.66,0 -1.26,-0.19 -1.83,-0.56 -0.55,-0.38 -0.98,-0.87 -1.25,-1.49 -0.29,-0.61 -0.38,-1.25 -0.27,-1.91 0.11,-0.67 0.39,-1.25 0.82,-1.74l22.23 -25.14 -22.78 0 0 -6.82 30.37 0c0.65,0 1.26,0.19 1.81,0.57 0.57,0.37 0.98,0.87 1.26,1.48z"/>
  <path id="_4" fill="lime" fill-rule="nonzero" d="M295.87 378.72c0,0.95 -0.17,1.97 -0.5,3.06 -0.32,1.1 -0.85,2.11 -1.59,3.05 -0.73,0.93 -1.69,1.72 -2.87,2.35 -1.18,0.63 -2.62,0.95 -4.3,0.95l-12.13 0 0 -6.49 12.13 0c0.91,0 1.61,-0.29 2.12,-0.85 0.5,-0.58 0.75,-1.28 0.75,-2.12 0,-0.9 -0.29,-1.59 -0.84,-2.1 -0.57,-0.51 -1.24,-0.76 -2.03,-0.76l-12.13 0c-0.92,0 -1.63,0.28 -2.12,0.85 -0.5,0.57 -0.75,1.28 -0.75,2.12l0 9.53c0,0.91 0.27,1.62 0.84,2.12 0.55,0.51 1.25,0.76 2.08,0.76l12.08 0 0 6.52 -12.13 0c-0.94,0 -1.93,-0.17 -3.01,-0.5 -1.09,-0.33 -2.08,-0.87 -3,-1.61 -0.93,-0.75 -1.7,-1.72 -2.32,-2.92 -0.62,-1.2 -0.93,-2.65 -0.93,-4.37l0 -9.59c0,-0.95 0.17,-1.96 0.49,-3.05 0.33,-1.1 0.86,-2.12 1.59,-3.05 0.73,-0.94 1.69,-1.72 2.87,-2.36 1.18,-0.63 2.61,-0.94 4.31,-0.94l12.13 0c0.92,0 1.93,0.17 3.01,0.5 1.08,0.33 2.08,0.87 3,1.62 0.92,0.74 1.69,1.71 2.31,2.91 0.62,1.2 0.94,2.65 0.94,4.37z"/>
  <path id="_5" fill="lime" fill-rule="nonzero" d="M324.86 376.15l-15.13 0c-0.91,0 -1.61,0.23 -2.07,0.69 -0.47,0.47 -0.7,1.15 -0.7,2.04l0 18.83 -6.72 0 0 -18.83c0,-1.17 0.14,-2.23 0.44,-3.15 0.29,-0.93 0.68,-1.75 1.17,-2.46 0.5,-0.7 1.06,-1.31 1.7,-1.81 0.63,-0.5 1.3,-0.9 2,-1.22 0.7,-0.32 1.41,-0.54 2.12,-0.7 0.71,-0.15 1.39,-0.22 2,-0.22l15.19 0 0 6.83z"/>
  <path id="_6" fill="lime" fill-rule="nonzero" d="M359.59 388.13c0,1.16 -0.15,2.22 -0.44,3.16 -0.29,0.94 -0.68,1.76 -1.17,2.47 -0.48,0.71 -1.04,1.32 -1.67,1.81 -0.65,0.5 -1.31,0.9 -2.01,1.22 -0.69,0.32 -1.41,0.55 -2.12,0.7 -0.72,0.15 -1.39,0.22 -2.03,0.22l-12.13 0c-0.93,0 -1.94,-0.17 -3.05,-0.5 -1.1,-0.33 -2.12,-0.88 -3.06,-1.64 -0.95,-0.76 -1.73,-1.75 -2.36,-2.97 -0.62,-1.22 -0.94,-2.71 -0.94,-4.47l0 -9.25c0,-1.75 0.32,-3.23 0.94,-4.45 0.63,-1.22 1.41,-2.2 2.36,-2.97 0.94,-0.76 1.96,-1.31 3.06,-1.64 1.11,-0.33 2.12,-0.5 3.05,-0.5l12.13 0c1.73,0 3.19,0.31 4.39,0.94 1.21,0.64 2.19,1.43 2.93,2.39 0.74,0.95 1.28,1.99 1.62,3.11 0.33,1.12 0.5,2.16 0.5,3.12l0 9.25zm-6.73 -9.2c0,-0.94 -0.22,-1.64 -0.69,-2.1 -0.47,-0.45 -1.14,-0.68 -2.02,-0.68l-12.08 0c-0.89,0 -1.57,0.23 -2.04,0.69 -0.47,0.47 -0.7,1.15 -0.7,2.04l0 9.25c0,0.89 0.23,1.57 0.7,2.04 0.47,0.48 1.15,0.71 2.04,0.71l12.08 0c0.91,0 1.59,-0.23 2.04,-0.71 0.45,-0.47 0.67,-1.15 0.67,-2.04l0 -9.2z"/>
 
	
</svg>