<?xml version="1.0" encoding="UTF-8" standalone="no"?>
<!DOCTYPE svg PUBLIC "-//W3C//DTD SVG 1.1//EN" "http://www.w3.org/Graphics/SVG/1.1/DTD/svg11.dtd">
<svg width="456" height="456" viewBox="0 0 456 456" version="1.1" xmlns="http://www.w3.org/2000/svg" xmlns:xlink="http://www.w3.org/1999/xlink" xml:space="preserve" xmlns:serif="http://www.serif.com/" style="fill-rule:evenodd;clip-rule:evenodd;stroke-linejoin:round;stroke-miterlimit:2;">
  <!--<rect fill="#ffffff" width="456" height="456"/>-->
  <!--<path fill="none" stroke="white" stroke-width="35.43" stroke-linecap="round" stroke-miterlimit="22.9256" d="M357.8 268.72c-14.32,53.42 -58.29,93.71 -112.75,103.32 -77.4,13.64 -151.22,-38.04 -164.86,-115.44 -13.65,-77.4 38.03,-151.21 115.43,-164.86"/>
  <polygon fill="lime" fill-rule="nonzero" stroke="lime" stroke-width="17.72" stroke-linecap="round" stroke-linejoin="round" stroke-miterlimit="7.6613" points="200.11,241.78 335.01,106.84 250.85,106.84 250.85,81.78 378,81.78 378,208.93 352.94,208.93 352.94,124.77 217.99,259.66 "/>-->

	<path fill="none" stroke="white" stroke-width="35.43" stroke-linecap="round" stroke-miterlimit="22.9256" d="M401.06 282.29c-19.08,71.23 -77.71,124.95 -150.33,137.76 -103.2,18.2 -201.62,-50.71 -219.82,-153.92 -18.19,-103.2 50.72,-201.61 153.92,-219.81"/>
	<polygon fill="lime" fill-rule="nonzero" stroke="lime" stroke-width="17.72" stroke-linecap="round" stroke-linejoin="round" stroke-miterlimit="7.6613" points="190.82,246.38 370.67,66.45 258.47,66.45 258.47,33.04 428,33.04 428,202.57 394.58,202.57 394.58,90.36 214.66,270.22 "/>
</svg>